<svg width="322" height="568" viewBox="0 0 322 568" fill="none" xmlns="http://www.w3.org/2000/svg">
<g clip-path="url(#clip0_220_5)">
<rect width="322" height="568" rx="36" fill="#0D0D0D"/>
<path d="M259.622 149.88C278.689 149.88 294.146 134.423 294.146 115.356C294.146 96.289 278.689 80.832 259.622 80.832C240.555 80.832 225.098 96.289 225.098 115.356C225.098 134.423 240.555 149.88 259.622 149.88Z" fill="#FC7A69"/>
<path d="M176.3 284.592C179.77 284.592 182.582 281.78 182.582 278.31C182.582 274.841 179.77 272.028 176.3 272.028C172.831 272.028 170.018 274.841 170.018 278.31C170.018 281.78 172.831 284.592 176.3 284.592Z" stroke="#FF478B" stroke-width="3.342" stroke-miterlimit="10"/>
<path d="M65.8341 104.628C68.2299 104.628 70.1721 102.686 70.1721 100.29C70.1721 97.8943 68.2299 95.9521 65.8341 95.9521C63.4383 95.9521 61.4961 97.8943 61.4961 100.29C61.4961 102.686 63.4383 104.628 65.8341 104.628Z" fill="#F9881F"/>
<path d="M261.008 254.658H42.1641C37.8441 254.658 34.3521 251.166 34.3521 246.846V123.114C34.3521 118.794 37.8441 115.302 42.1641 115.302H261.008C265.328 115.302 268.82 118.794 268.82 123.114V246.846C268.82 251.148 265.328 254.658 261.008 254.658Z" fill="#202482"/>
<path d="M266.444 254.658H47.6001C43.2801 254.658 39.7881 251.166 39.7881 246.846V123.114C39.7881 118.794 43.2801 115.302 47.6001 115.302H266.444C270.764 115.302 274.256 118.794 274.256 123.114V246.846C274.256 251.148 270.764 254.658 266.444 254.658Z" fill="#F9881F"/>
<path d="M265.796 128.802V241.158C265.796 244.002 263.492 246.306 260.648 246.306H53.4321C50.5881 246.306 48.2661 244.002 48.2661 241.158V128.802C48.2661 125.958 50.5701 123.654 53.4321 123.654H260.648C263.474 123.636 265.796 125.94 265.796 128.802Z" fill="white"/>
<path d="M139.184 185.25H109.502C108.332 185.25 107.378 184.296 107.378 183.126V153.444C107.378 152.274 108.332 151.32 109.502 151.32H139.184C140.354 151.32 141.308 152.274 141.308 153.444V183.126C141.308 184.314 140.354 185.25 139.184 185.25Z" fill="#252149"/>
<path d="M131.588 180.012H117.08C116.684 180.012 116.36 179.688 116.36 179.292V161.598C116.36 161.202 116.684 160.878 117.08 160.878H131.57C131.966 160.878 132.29 161.202 132.29 161.598V179.292C132.308 179.688 131.984 180.012 131.588 180.012Z" fill="#FF4B85"/>
<path d="M129.662 156.576H119.024V160.878H129.662V156.576Z" fill="#FFC000"/>
<path d="M186.398 185.25H156.716C155.546 185.25 154.592 184.296 154.592 183.126V153.444C154.592 152.274 155.546 151.32 156.716 151.32H186.398C187.568 151.32 188.522 152.274 188.522 153.444V183.126C188.522 184.314 187.586 185.25 186.398 185.25Z" fill="#252149"/>
<path d="M233.378 185.25H203.696C202.526 185.25 201.572 184.296 201.572 183.126V153.444C201.572 152.274 202.526 151.32 203.696 151.32H233.378C234.548 151.32 235.502 152.274 235.502 153.444V183.126C235.502 184.314 234.548 185.25 233.378 185.25Z" fill="#252149"/>
<path d="M226.448 181.776L222.578 168.222L224 161.094H213.056L214.496 168.222L210.626 181.776H226.448Z" fill="#006AD3"/>
<path d="M221.264 161.094H215.792L214.856 155.622H222.2L221.264 161.094Z" fill="#FF478B"/>
<path d="M139.184 230.376H109.502C108.332 230.376 107.378 229.422 107.378 228.252V198.57C107.378 197.4 108.332 196.446 109.502 196.446H139.184C140.354 196.446 141.308 197.4 141.308 198.57V228.252C141.308 229.422 140.354 230.376 139.184 230.376Z" fill="#252149"/>
<path d="M186.398 230.376H156.716C155.546 230.376 154.592 229.422 154.592 228.252V198.57C154.592 197.4 155.546 196.446 156.716 196.446H186.398C187.568 196.446 188.522 197.4 188.522 198.57V228.252C188.522 229.422 187.586 230.376 186.398 230.376Z" fill="#252149"/>
<path d="M233.378 230.376H203.696C202.526 230.376 201.572 229.422 201.572 228.252V198.57C201.572 197.4 202.526 196.446 203.696 196.446H233.378C234.548 196.446 235.502 197.4 235.502 198.57V228.252C235.502 229.422 234.548 230.376 233.378 230.376Z" fill="#252149"/>
<path d="M265.796 128.802V141.096H48.2661V128.802C48.2661 125.958 50.5701 123.654 53.4321 123.654H260.648C263.474 123.636 265.796 125.94 265.796 128.802Z" fill="#252149"/>
<path d="M98.6481 151.14H55.0161V155.856H98.6481V151.14Z" fill="#252149"/>
<path d="M98.6481 161.31H55.0161V162.444H98.6481V161.31Z" fill="#252149"/>
<path d="M91.5741 168.6H55.0161V169.734H91.5741V168.6Z" fill="#252149"/>
<path d="M91.5741 175.89H55.0161V177.024H91.5741V175.89Z" fill="#252149"/>
<path d="M85.3461 183.162H55.0161V184.296H85.3461V183.162Z" fill="#252149"/>
<path d="M87.0741 190.452H55.0161V191.586H87.0741V190.452Z" fill="#252149"/>
<path d="M87.0741 197.742H55.0161V198.876H87.0741V197.742Z" fill="#252149"/>
<path d="M98.6481 205.032H55.0161V206.166H98.6481V205.032Z" fill="#252149"/>
<path d="M92.9241 212.322H55.0161V213.456H92.9241V212.322Z" fill="#252149"/>
<path d="M88.6041 219.612H55.0161V220.746H88.6041V219.612Z" fill="#252149"/>
<path d="M92.9241 226.902H55.0161V228.036H92.9241V226.902Z" fill="#252149"/>
<path d="M257.462 145.992V238.71" stroke="#002D7D" stroke-width="0.836" stroke-miterlimit="10"/>
<path d="M257.462 189.804C256.274 189.804 255.32 188.85 255.32 187.662V178.032C255.32 176.844 256.274 175.89 257.462 175.89C258.65 175.89 259.604 176.844 259.604 178.032V187.662C259.622 188.85 258.65 189.804 257.462 189.804Z" fill="#252149"/>
<path d="M168.02 202.62H178.496V209.172C178.496 210.702 179.432 212.088 180.854 212.664L182.96 213.51C184.436 214.104 185.39 215.526 185.39 217.11V220.512H174.734L173.42 218.874L171.8 220.512H168.02V202.62Z" fill="#FF4B85"/>
<path d="M168.02 217.866V220.512H171.8L173.42 218.856L174.716 220.512H185.39V217.866H168.02Z" fill="white"/>
<path d="M172.844 217.867C172.844 215.185 170.684 212.827 168.002 212.809" stroke="white" stroke-width="1.417" stroke-miterlimit="10"/>
<path d="M181.214 212.809C181.214 212.809 179.198 213.853 179.198 217.867" stroke="white" stroke-width="1.417" stroke-miterlimit="10"/>
<path d="M176.3 202.62V210.99" stroke="white" stroke-width="1.417" stroke-miterlimit="10"/>
<path d="M160.676 205.267H171.152V211.819C171.152 213.349 172.088 214.735 173.51 215.311L175.616 216.157C177.092 216.751 178.046 218.173 178.046 219.757V223.141H167.39L166.076 221.503L164.456 223.141H160.658L160.676 205.267Z" fill="#FFC000"/>
<path d="M160.676 220.513V223.141H164.474L166.076 221.503L167.39 223.141H178.064V220.513H160.676Z" fill="white"/>
<path d="M165.518 220.513C165.518 217.831 163.358 215.473 160.676 215.455" stroke="white" stroke-width="1.417" stroke-miterlimit="10"/>
<path d="M173.888 215.455C173.888 215.455 171.872 216.499 171.872 220.513" stroke="white" stroke-width="1.417" stroke-miterlimit="10"/>
<path d="M168.974 205.267V213.637" stroke="white" stroke-width="1.417" stroke-miterlimit="10"/>
<path d="M183.302 178.23H160.784C159.614 178.23 158.75 177.168 158.984 176.016L161.522 163.83C161.702 162.984 162.458 162.354 163.322 162.354H180.764C181.628 162.354 182.384 162.966 182.564 163.83L185.102 176.016C185.336 177.168 184.472 178.23 183.302 178.23Z" fill="white"/>
<path d="M183.77 169.626L182.564 163.83C182.384 162.984 181.628 162.354 180.764 162.354H163.322C162.458 162.354 161.702 162.966 161.522 163.83L160.316 169.626C160.64 170.004 160.982 170.346 161.396 170.634C164.24 172.578 167.966 173.766 172.034 173.766C176.102 173.766 179.828 172.578 182.672 170.634C183.086 170.346 183.446 170.004 183.77 169.626Z" fill="#8FC2FF"/>
<path d="M180.764 162.372H163.322C162.458 162.372 161.684 162.984 161.522 163.848L161.234 165.234C160.856 167.052 161.612 168.942 163.196 169.95C165.572 171.48 168.668 172.398 172.052 172.398C175.454 172.398 178.532 171.48 180.908 169.95C182.474 168.942 183.248 167.052 182.87 165.234L182.582 163.848C182.384 162.984 181.628 162.372 180.764 162.372Z" fill="white"/>
<path d="M173.24 170.31H170.864C170.486 170.31 170.18 170.004 170.18 169.626C170.18 169.248 170.486 168.942 170.864 168.942H173.24C173.618 168.942 173.924 169.248 173.924 169.626C173.924 169.986 173.618 170.31 173.24 170.31Z" stroke="#F9881F" stroke-width="1.621" stroke-miterlimit="10"/>
<path d="M177.02 166.008H167.066V163.344C167.066 160.59 169.298 158.358 172.052 158.358C174.806 158.358 177.038 160.59 177.038 163.344L177.02 166.008Z" stroke="white" stroke-width="1.621" stroke-miterlimit="10"/>
<path d="M223.226 206.958H214.208L214.784 204.762C214.946 204.15 215.504 203.718 216.152 203.718H221.3C221.948 203.718 222.506 204.15 222.668 204.762L223.226 206.958Z" fill="#2E3744"/>
<path d="M228.968 221.915H208.466C207.764 221.915 207.17 221.339 207.17 220.619V207.695C207.17 206.993 207.746 206.399 208.466 206.399H228.968C229.67 206.399 230.264 206.975 230.264 207.695V220.619C230.264 221.339 229.688 221.915 228.968 221.915Z" fill="white"/>
<path d="M224.648 214.302C224.648 217.578 222.002 220.224 218.726 220.224C215.45 220.224 212.804 217.578 212.804 214.302C212.804 211.026 215.45 208.38 218.726 208.38C221.984 208.38 224.648 211.044 224.648 214.302Z" stroke="#F9881F" stroke-width="0.836" stroke-miterlimit="10"/>
<path d="M221.624 214.301C221.624 215.903 220.328 217.199 218.726 217.199C217.124 217.199 215.828 215.903 215.828 214.301C215.828 212.699 217.124 211.403 218.726 211.403C220.328 211.403 221.624 212.699 221.624 214.301Z" fill="#2E3744"/>
<path d="M129.842 204.582L126.692 204.132C126.548 205.302 125.558 206.202 124.352 206.202C123.146 206.202 122.156 205.302 122.012 204.132L118.862 204.582C117.728 204.744 116.684 205.284 115.892 206.112L111.842 210.324L115.46 214.122L117.35 212.394L117.692 224.508H131.03L131.372 212.394L133.262 214.122L136.88 210.324L132.83 206.112C132.02 205.284 130.976 204.744 129.842 204.582Z" fill="#F9881F"/>
<path d="M152.288 195.726C152.288 195.726 158.822 196.266 159.056 198.012C159.29 199.758 158.786 202.8 152.612 203.394H146.222C146.222 203.394 148.13 198.102 148.04 197.922C147.95 197.742 152.288 195.726 152.288 195.726Z" fill="#EF8D7F"/>
<path d="M162.764 221.628C163.646 222.096 163.952 223.212 163.448 224.076C160.442 229.26 148.49 249.87 147.41 251.544C146.168 253.47 143.162 257.988 133.154 260.31C123.146 262.632 119.042 269.346 119.042 269.346H88.2261C88.2261 269.346 95.4801 257.844 101.51 227.964C101.51 227.964 106.172 203.16 114.938 203.988C114.938 203.988 120.284 198.372 125.486 199.47C125.486 199.47 135.35 193.584 140.966 193.584L154.466 177.636C155.798 176.052 158.156 175.746 159.794 177.006C160.316 177.402 160.73 177.942 160.838 178.644C161.252 181.254 157.832 187.824 152.342 195.78C146.87 203.736 133.298 228.936 139.184 240.042C139.184 240.042 145.214 235.524 150.416 228.252C154.79 222.15 159.938 220.116 162.764 221.628Z" fill="#FF7F72"/>
<path d="M131.75 204.258C133.118 202.35 134.594 200.514 136.124 198.732C136.898 197.85 137.69 196.968 138.482 196.122C139.274 195.276 140.102 194.43 140.948 193.62L140.912 193.584C139.112 195.114 137.438 196.77 135.854 198.534C135.062 199.398 134.288 200.298 133.55 201.216C132.812 202.134 132.092 203.07 131.39 204.024C131.048 204.51 130.724 204.996 130.382 205.482C130.058 205.986 129.734 206.472 129.428 206.976C128.816 207.984 128.222 209.01 127.7 210.09L127.502 210.486C127.43 210.612 127.376 210.756 127.322 210.882C127.196 211.152 127.07 211.422 126.962 211.692L126.638 212.52C126.53 212.79 126.44 213.078 126.332 213.348C126.224 213.618 126.152 213.906 126.062 214.194L125.936 214.626C125.9 214.77 125.864 214.914 125.828 215.058L125.72 215.49C125.684 215.634 125.648 215.778 125.63 215.922L125.486 216.786H125.522C125.756 215.634 126.116 214.518 126.53 213.42C126.944 212.322 127.448 211.26 127.988 210.216C128.258 209.694 128.546 209.19 128.834 208.668C129.14 208.164 129.428 207.66 129.752 207.156L131.75 204.258Z" fill="#FF5850"/>
<path d="M125.576 199.416C124.118 200.154 122.822 201.198 121.67 202.368C121.094 202.944 120.572 203.592 120.068 204.24C119.582 204.906 119.132 205.59 118.718 206.31C117.908 207.75 117.278 209.28 116.864 210.882C116.774 211.278 116.666 211.674 116.594 212.088C116.558 212.286 116.522 212.484 116.486 212.7L116.396 213.312L116.36 213.618C116.342 213.726 116.342 213.816 116.342 213.924L116.288 214.536C116.252 214.95 116.252 215.346 116.252 215.76H116.288C116.414 214.14 116.72 212.538 117.17 210.99C117.404 210.216 117.674 209.442 117.998 208.704C118.142 208.326 118.322 207.966 118.502 207.606C118.682 207.246 118.862 206.886 119.078 206.544C119.87 205.122 120.824 203.808 121.922 202.62C122.462 202.026 123.056 201.45 123.668 200.928C124.28 200.406 124.928 199.902 125.612 199.47L125.576 199.416Z" fill="#FF5850"/>
<path d="M115.046 203.861C114.146 204.545 113.408 205.391 112.742 206.309L112.49 206.651C112.418 206.759 112.346 206.885 112.256 207.011C112.112 207.245 111.95 207.479 111.824 207.731C111.752 207.857 111.68 207.983 111.626 208.109C111.572 208.235 111.482 208.361 111.428 208.487L111.068 209.243C111.014 209.369 110.96 209.495 110.906 209.639L110.744 210.035L110.582 210.431C110.528 210.557 110.492 210.701 110.438 210.827L110.186 211.637C110.114 211.907 110.042 212.177 109.988 212.447C109.844 212.987 109.772 213.545 109.682 214.103L109.646 214.319L109.628 214.535C109.61 214.679 109.61 214.805 109.592 214.949L109.574 215.363L109.556 215.777H109.592L109.736 214.967L109.808 214.553L109.844 214.355L109.898 214.157L110.078 213.347C110.114 213.221 110.132 213.077 110.168 212.951L110.276 212.555C110.348 212.285 110.438 212.033 110.51 211.763L110.78 210.989C110.834 210.863 110.87 210.737 110.924 210.593L111.086 210.215L111.248 209.837C111.302 209.711 111.356 209.585 111.41 209.459L111.752 208.703C111.878 208.451 112.004 208.217 112.13 207.965C112.256 207.713 112.4 207.479 112.544 207.245C112.616 207.119 112.688 207.011 112.76 206.885L112.976 206.543C113.57 205.625 114.254 204.725 115.028 203.951L115.046 203.861Z" fill="#FF5850"/>
<path d="M119.06 269.346L109.97 301.764C103.742 301.62 97.5322 301.188 91.4662 299.838C86.5702 298.74 81.7462 297.03 77.4082 294.528L88.5322 269.346L90.4402 265.026L90.4942 264.882L119.06 269.346Z" fill="#FF7F72"/>
<path d="M90.6405 375L84.4805 364.12H81.8405V375H76.2405V347.08H86.7205C88.8805 347.08 90.7205 347.467 92.2405 348.24C93.7605 348.987 94.8938 350.013 95.6405 351.32C96.4138 352.6 96.8005 354.04 96.8005 355.64C96.8005 357.48 96.2671 359.147 95.2005 360.64C94.1338 362.107 92.5471 363.12 90.4405 363.68L97.1205 375H90.6405ZM81.8405 359.92H86.5205C88.0405 359.92 89.1738 359.56 89.9205 358.84C90.6671 358.093 91.0405 357.067 91.0405 355.76C91.0405 354.48 90.6671 353.493 89.9205 352.8C89.1738 352.08 88.0405 351.72 86.5205 351.72H81.8405V359.92ZM107.465 351.6V358.6H116.865V363.04H107.465V370.44H118.065V375H101.865V347.04H118.065V351.6H107.465ZM143.955 379.92L139.715 374.84C138.541 375.133 137.341 375.28 136.115 375.28C133.501 375.28 131.101 374.667 128.915 373.44C126.728 372.213 124.995 370.52 123.715 368.36C122.435 366.173 121.795 363.707 121.795 360.96C121.795 358.24 122.435 355.8 123.715 353.64C124.995 351.453 126.728 349.747 128.915 348.52C131.101 347.293 133.501 346.68 136.115 346.68C138.755 346.68 141.155 347.293 143.315 348.52C145.501 349.747 147.221 351.453 148.475 353.64C149.755 355.8 150.395 358.24 150.395 360.96C150.395 363.44 149.861 365.707 148.795 367.76C147.755 369.787 146.328 371.44 144.515 372.72L150.915 379.92H143.955ZM127.555 360.96C127.555 362.827 127.915 364.467 128.635 365.88C129.355 367.293 130.355 368.387 131.635 369.16C132.941 369.907 134.435 370.28 136.115 370.28C137.795 370.28 139.275 369.907 140.555 369.16C141.835 368.387 142.835 367.293 143.555 365.88C144.275 364.467 144.635 362.827 144.635 360.96C144.635 359.093 144.275 357.467 143.555 356.08C142.835 354.667 141.835 353.587 140.555 352.84C139.275 352.093 137.795 351.72 136.115 351.72C134.435 351.72 132.941 352.093 131.635 352.84C130.355 353.587 129.355 354.667 128.635 356.08C127.915 357.467 127.555 359.093 127.555 360.96ZM160.159 347.08V364.36C160.159 366.253 160.652 367.707 161.639 368.72C162.626 369.707 164.012 370.2 165.799 370.2C167.612 370.2 169.012 369.707 169.999 368.72C170.986 367.707 171.479 366.253 171.479 364.36V347.08H177.119V364.32C177.119 366.693 176.599 368.707 175.559 370.36C174.546 371.987 173.172 373.213 171.439 374.04C169.732 374.867 167.826 375.28 165.719 375.28C163.639 375.28 161.746 374.867 160.039 374.04C158.359 373.213 157.026 371.987 156.039 370.36C155.052 368.707 154.559 366.693 154.559 364.32V347.08H160.159ZM188.13 351.6V358.6H197.53V363.04H188.13V370.44H198.73V375H182.53V347.04H198.73V351.6H188.13ZM213.459 375.28C211.512 375.28 209.752 374.947 208.179 374.28C206.632 373.613 205.405 372.653 204.499 371.4C203.592 370.147 203.125 368.667 203.099 366.96H209.099C209.179 368.107 209.579 369.013 210.299 369.68C211.045 370.347 212.059 370.68 213.339 370.68C214.645 370.68 215.672 370.373 216.419 369.76C217.165 369.12 217.539 368.293 217.539 367.28C217.539 366.453 217.285 365.773 216.779 365.24C216.272 364.707 215.632 364.293 214.859 364C214.112 363.68 213.072 363.333 211.739 362.96C209.925 362.427 208.445 361.907 207.299 361.4C206.179 360.867 205.205 360.08 204.379 359.04C203.579 357.973 203.179 356.56 203.179 354.8C203.179 353.147 203.592 351.707 204.419 350.48C205.245 349.253 206.405 348.32 207.899 347.68C209.392 347.013 211.099 346.68 213.019 346.68C215.899 346.68 218.232 347.387 220.019 348.8C221.832 350.187 222.832 352.133 223.019 354.64H216.859C216.805 353.68 216.392 352.893 215.619 352.28C214.872 351.64 213.872 351.32 212.619 351.32C211.525 351.32 210.645 351.6 209.979 352.16C209.339 352.72 209.019 353.533 209.019 354.6C209.019 355.347 209.259 355.973 209.739 356.48C210.245 356.96 210.859 357.36 211.579 357.68C212.325 357.973 213.365 358.32 214.699 358.72C216.512 359.253 217.992 359.787 219.139 360.32C220.285 360.853 221.272 361.653 222.099 362.72C222.925 363.787 223.339 365.187 223.339 366.92C223.339 368.413 222.952 369.8 222.179 371.08C221.405 372.36 220.272 373.387 218.779 374.16C217.285 374.907 215.512 375.28 213.459 375.28ZM247.194 347.08V351.6H239.754V375H234.154V351.6H226.714V347.08H247.194ZM93.2675 404.08L85.4675 432H78.8675L73.6275 412.12L68.1475 432L61.5875 432.04L54.0675 404.08H60.0675L64.9875 425.76L70.6675 404.08H76.9075L82.2675 425.64L87.2275 404.08H93.2675ZM120.084 404.08V432H114.484V420.12H102.524V432H96.9241V404.08H102.524V415.56H114.484V404.08H120.084ZM142.716 426.68H131.596L129.756 432H123.876L133.916 404.04H140.436L150.476 432H144.556L142.716 426.68ZM141.196 422.2L137.156 410.52L133.116 422.2H141.196ZM173.229 404.08V408.6H165.789V432H160.189V408.6H152.749V404.08H173.229ZM209.046 404.08L199.606 422.28V432H194.006V422.28L184.526 404.08H190.846L196.846 416.84L202.806 404.08H209.046ZM225.236 432.28C222.622 432.28 220.222 431.667 218.036 430.44C215.849 429.213 214.116 427.52 212.836 425.36C211.556 423.173 210.916 420.707 210.916 417.96C210.916 415.24 211.556 412.8 212.836 410.64C214.116 408.453 215.849 406.747 218.036 405.52C220.222 404.293 222.622 403.68 225.236 403.68C227.876 403.68 230.276 404.293 232.436 405.52C234.622 406.747 236.342 408.453 237.596 410.64C238.876 412.8 239.516 415.24 239.516 417.96C239.516 420.707 238.876 423.173 237.596 425.36C236.342 427.52 234.622 429.213 232.436 430.44C230.249 431.667 227.849 432.28 225.236 432.28ZM225.236 427.28C226.916 427.28 228.396 426.907 229.676 426.16C230.956 425.387 231.956 424.293 232.676 422.88C233.396 421.467 233.756 419.827 233.756 417.96C233.756 416.093 233.396 414.467 232.676 413.08C231.956 411.667 230.956 410.587 229.676 409.84C228.396 409.093 226.916 408.72 225.236 408.72C223.556 408.72 222.062 409.093 220.756 409.84C219.476 410.587 218.476 411.667 217.756 413.08C217.036 414.467 216.676 416.093 216.676 417.96C216.676 419.827 217.036 421.467 217.756 422.88C218.476 424.293 219.476 425.387 220.756 426.16C222.062 426.907 223.556 427.28 225.236 427.28ZM249.202 404.08V421.36C249.202 423.253 249.695 424.707 250.682 425.72C251.669 426.707 253.055 427.2 254.842 427.2C256.655 427.2 258.055 426.707 259.042 425.72C260.029 424.707 260.522 423.253 260.522 421.36V404.08H266.162V421.32C266.162 423.693 265.642 425.707 264.602 427.36C263.589 428.987 262.215 430.213 260.482 431.04C258.775 431.867 256.869 432.28 254.762 432.28C252.682 432.28 250.789 431.867 249.082 431.04C247.402 430.213 246.069 428.987 245.082 427.36C244.095 425.707 243.602 423.693 243.602 421.32V404.08H249.202ZM140.025 460.08L132.225 488H125.625L120.385 468.12L114.905 488L108.345 488.04L100.825 460.08H106.825L111.745 481.76L117.425 460.08H123.665L129.025 481.64L133.985 460.08H140.025ZM160.802 482.68H149.682L147.842 488H141.962L152.002 460.04H158.522L168.562 488H162.642L160.802 482.68ZM159.282 478.2L155.242 466.52L151.202 478.2H159.282ZM196.195 488H190.595L177.915 468.84V488H172.315V460.04H177.915L190.595 479.24V460.04H196.195V488ZM220.729 460.08V464.6H213.289V488H207.689V464.6H200.249V460.08H220.729Z" fill="white"/>
</g>
<defs>
<clipPath id="clip0_220_5">
<rect width="322" height="568" rx="36" fill="white"/>
</clipPath>
</defs>
</svg>
