<svg width="330" height="576" viewBox="0 0 330 576" fill="none" xmlns="http://www.w3.org/2000/svg">
<g filter="url(#filter0_d_220_6)">
<g clip-path="url(#clip0_220_6)">
<rect x="4" width="322" height="568" rx="36" fill="#0D0D0D"/>
<g clip-path="url(#clip1_220_6)">
<mask id="mask0_220_6" style="mask-type:luminance" maskUnits="userSpaceOnUse" x="30" y="53" width="282" height="282">
<path d="M311.948 53H30.0415V335H311.948V53Z" fill="white"/>
</mask>
<g mask="url(#mask0_220_6)">
<path d="M198.581 87.4131H209.176V94.4788H198.581V87.4131Z" fill="#F1F1F1"/>
<path d="M151.256 47.1387H212.707V90.9462H151.256V47.1387Z" fill="#F9881F"/>
<path d="M55.9004 159.484C55.9004 157.532 57.4816 155.95 59.4321 155.95H140.66C142.611 155.95 144.193 157.532 144.193 159.484V301.505C144.193 303.455 142.611 305.037 140.66 305.037H59.4321C57.4816 305.037 55.9004 303.455 55.9004 301.505V159.484Z" fill="#F1F1F1"/>
<path fill-rule="evenodd" clip-rule="evenodd" d="M29.7661 329.414C29.7661 329.024 30.0824 328.707 30.4724 328.707H311.241C311.631 328.707 311.947 329.024 311.947 329.414C311.947 329.804 311.631 330.12 311.241 330.12H30.4724C30.0824 330.12 29.7661 329.804 29.7661 329.414Z" fill="#3E3D3D"/>
<path d="M109.582 128.394C109.582 120.59 115.907 114.263 123.709 114.263H204.231C212.033 114.263 218.357 120.59 218.357 128.394V269.708C218.357 277.513 212.033 283.84 204.231 283.84H123.709C115.907 283.84 109.582 277.513 109.582 269.708V128.394Z" fill="#F1F1F1"/>
<path fill-rule="evenodd" clip-rule="evenodd" d="M108.876 128.395C108.876 120.2 115.517 113.557 123.709 113.557H204.231C212.424 113.557 219.064 120.2 219.064 128.395V269.708C219.064 277.903 212.424 284.547 204.231 284.547H123.709C115.517 284.547 108.876 277.903 108.876 269.708V128.395ZM123.709 114.97C116.297 114.97 110.289 120.98 110.289 128.395V269.708C110.289 277.123 116.297 283.134 123.709 283.134H204.231C211.644 283.134 217.652 277.123 217.652 269.708V128.395C217.652 120.98 211.644 114.97 204.231 114.97H123.709Z" fill="#3E3D3D"/>
<path fill-rule="evenodd" clip-rule="evenodd" d="M115.233 117.088C117.594 115.314 120.529 114.263 123.709 114.263H204.231C207.411 114.263 210.346 115.314 212.707 117.088V281.014C210.346 282.789 207.411 283.84 204.231 283.84H123.709C120.529 283.84 117.594 282.789 115.233 281.014V117.088Z" fill="white"/>
<path d="M269.214 208.591C269.214 216.59 262.731 223.075 254.734 223.075C246.737 223.075 240.254 216.59 240.254 208.591C240.254 200.592 246.737 194.106 254.734 194.106C262.731 194.106 269.214 200.592 269.214 208.591Z" fill="#F1F1F1"/>
<path opacity="0.5" d="M123.709 148.178C123.709 146.227 125.29 144.646 127.241 144.646H200.7C202.65 144.646 204.231 146.227 204.231 148.178V195.519C204.231 197.47 202.65 199.051 200.7 199.051H127.241C125.29 199.051 123.709 197.47 123.709 195.519V148.178Z" fill="#F1F1F1"/>
<path d="M123.709 213.184H144.193V225.902H123.709V213.184Z" fill="#F9881F"/>
<path d="M152.669 213.184H173.152V225.902H152.669V213.184Z" fill="#F9881F"/>
<path d="M181.628 213.184H204.231V225.902H181.628V213.184Z" fill="#F9881F"/>
<path d="M123.709 233.674H144.193V246.392H123.709V233.674Z" fill="#F9881F"/>
<path d="M152.669 233.674H173.152V246.392H152.669V233.674Z" fill="#F9881F"/>
<path d="M181.628 233.674H204.231V246.392H181.628V233.674Z" fill="#F9881F"/>
<path d="M123.709 254.87H144.193V267.588H123.709V254.87Z" fill="#F1F1F1"/>
<path d="M152.669 254.87H173.152V267.588H152.669V254.87Z" fill="#F9881F"/>
<path d="M181.628 254.87H204.231V267.588H181.628V254.87Z" fill="#F1F1F1"/>
<path fill-rule="evenodd" clip-rule="evenodd" d="M108.876 128.395C108.876 120.2 115.517 113.557 123.709 113.557H204.231C212.424 113.557 219.064 120.2 219.064 128.395V269.708C219.064 277.903 212.424 284.547 204.231 284.547H123.709C115.517 284.547 108.876 277.903 108.876 269.708V128.395ZM123.709 114.97C116.297 114.97 110.289 120.98 110.289 128.395V269.708C110.289 277.123 116.297 283.134 123.709 283.134H204.231C211.644 283.134 217.652 277.123 217.652 269.708V128.395C217.652 120.98 211.644 114.97 204.231 114.97H123.709Z" fill="#3E3D3D"/>
<path d="M129.36 83.1738H198.581V131.927H129.36V83.1738Z" fill="#F1F1F1"/>
<path fill-rule="evenodd" clip-rule="evenodd" d="M198.581 83.1737H129.36V79.2875L129.375 79.2701C129.365 79.1596 129.36 79.0475 129.36 78.9342C129.36 76.9831 130.94 75.4014 132.891 75.4014H202.112L198.581 79.2875V83.1737Z" fill="#F1F1F1"/>
<path d="M212.707 90.946C212.707 92.8971 211.126 94.4788 209.176 94.4788C207.225 94.4788 205.644 92.8971 205.644 90.946C205.644 88.9948 207.225 87.4131 209.176 87.4131C211.126 87.4131 212.707 88.9948 212.707 90.946Z" fill="#F9881F"/>
<path d="M205.644 78.9342C205.644 80.8853 204.063 82.4671 202.112 82.4671C200.162 82.4671 198.581 80.8853 198.581 78.9342C198.581 76.9831 200.162 75.4014 202.112 75.4014C204.063 75.4014 205.644 76.9831 205.644 78.9342Z" fill="#F1F1F1"/>
<path d="M198.581 78.9346H205.644V94.4792H198.581V78.9346Z" fill="#F1F1F1"/>
<path d="M74.2651 155.95H94.0425V305.037H74.2651V155.95Z" fill="#F1F1F1"/>
<path fill-rule="evenodd" clip-rule="evenodd" d="M164.323 154.891C154.961 154.891 147.371 162.483 147.371 171.848C147.371 181.214 154.961 188.806 164.323 188.806C173.686 188.806 181.276 181.214 181.276 171.848C181.276 162.483 173.686 154.891 164.323 154.891ZM143.839 171.848C143.839 160.532 153.011 151.357 164.323 151.357C175.636 151.357 184.807 160.532 184.807 171.848C184.807 183.165 175.636 192.339 164.323 192.339C153.011 192.339 143.839 183.165 143.839 171.848Z" fill="#F1F1F1"/>
<path fill-rule="evenodd" clip-rule="evenodd" d="M188.822 161.501L161.49 184.087L149.765 167.147L155.572 163.125L162.92 173.741L184.324 156.053L188.822 161.501Z" fill="#F9881F"/>
<path d="M97.2214 125.921C97.2214 133.921 90.5803 140.406 82.3882 140.406C74.1962 140.406 67.5552 133.921 67.5552 125.921C67.5552 117.922 74.1962 111.437 82.3882 111.437C90.5803 111.437 97.2214 117.922 97.2214 125.921Z" fill="#F1F1F1"/>
<path fill-rule="evenodd" clip-rule="evenodd" d="M92.8786 122.815L76.5346 133.325L70.998 124.378L74.0009 122.519L77.6466 128.41L90.9688 119.843L92.8786 122.815Z" fill="#F1F1F1"/>
<path d="M258.619 166.902C258.619 179.584 248.341 189.866 235.663 189.866C222.984 189.866 212.707 179.584 212.707 166.902C212.707 154.219 222.984 143.938 235.663 143.938C248.341 143.938 258.619 154.219 258.619 166.902Z" fill="#F9881F"/>
<path fill-rule="evenodd" clip-rule="evenodd" d="M218.357 241.799L194.695 222.722C193.628 221.9 192.36 220.37 191.18 218.328C187.639 212.204 184.878 201.472 190.611 191.421C191.049 190.653 191.748 190.173 192.526 189.985C193.043 189.862 193.594 189.868 194.126 190.005C194.571 190.12 195.002 190.327 195.391 190.627C209.931 201.87 234.605 221.134 235.663 222.722C235.919 223.107 236.335 223.529 236.854 224.058H236.855C239.198 226.438 243.658 230.97 245.199 243.919C245.445 245.991 245.74 248.124 246.041 250.3C247.893 263.712 249.97 278.748 242.373 290.907C242.138 294.086 245.199 306.169 259.325 329.061H166.795C166.089 327.413 164.111 323.833 161.851 322.702C161.478 322.516 160.91 322.274 160.19 321.969C155.448 319.956 144.154 315.16 139.248 305.038H140.66C142.611 305.038 144.193 303.456 144.193 301.505V299.385V283.841H204.938C212.349 283.841 218.357 277.83 218.357 270.416V241.799Z" fill="#EFCB96"/>
<path d="M129.36 126.981H198.581V131.927H129.36V126.981Z" fill="#F1F1F1"/>
<path fill-rule="evenodd" clip-rule="evenodd" d="M187.633 91.6524H139.602V90.2393H187.633V91.6524ZM187.633 104.017H139.602V102.604H187.633V104.017ZM187.633 115.323H139.602V113.909H187.633V115.323Z" fill="#3E3D3D"/>
<path fill-rule="evenodd" clip-rule="evenodd" d="M236.016 151.005C237.187 151.005 238.135 151.953 238.135 153.125V154.108C242.056 154.224 245.199 157.441 245.199 161.391H240.961C240.961 159.708 239.597 158.344 237.914 158.344H234.463C232.59 158.344 231.072 159.863 231.072 161.736C231.072 163.608 232.59 165.127 234.463 165.127H237.914C241.937 165.127 245.199 168.389 245.199 172.413C245.199 176.364 242.056 179.58 238.135 179.697V180.681C238.135 181.851 237.187 182.8 236.016 182.8C234.846 182.8 233.897 181.851 233.897 180.681V179.7H233.429C229.787 179.7 226.833 176.746 226.833 173.102H231.072C231.072 174.405 232.128 175.461 233.429 175.461H237.914C239.597 175.461 240.961 174.097 240.961 172.413C240.961 170.731 239.597 169.367 237.914 169.367H234.463C230.249 169.367 226.833 165.95 226.833 161.736C226.833 157.711 229.949 154.414 233.897 154.125V153.125C233.897 151.953 234.846 151.005 236.016 151.005Z" fill="white"/>
<path fill-rule="evenodd" clip-rule="evenodd" d="M255.087 199.052C255.868 199.052 256.5 199.684 256.5 200.466V200.886C258.86 201 260.738 202.951 260.738 205.34H257.912C257.912 204.438 257.181 203.707 256.279 203.707H254.098C253.084 203.707 252.262 204.529 252.262 205.543C252.262 206.559 253.084 207.381 254.098 207.381H256.279C258.741 207.381 260.738 209.378 260.738 211.841C260.738 214.23 258.86 216.18 256.5 216.296V216.716C256.5 217.496 255.868 218.129 255.087 218.129C254.307 218.129 253.675 217.496 253.675 216.716V216.301H253.489C251.251 216.301 249.437 214.487 249.437 212.247H252.262C252.262 212.925 252.811 213.475 253.489 213.475H256.279C257.181 213.475 257.912 212.744 257.912 211.841C257.912 210.939 257.181 210.207 256.279 210.207H254.098C251.524 210.207 249.437 208.119 249.437 205.543C249.437 203.111 251.298 201.113 253.675 200.899V200.466C253.675 199.684 254.307 199.052 255.087 199.052Z" fill="white"/>
</g>
</g>
<path d="M120.88 376.6V383.6H130.28V388.04H120.88V395.44H131.48V400H115.28V372.04H131.48V376.6H120.88ZM153.689 394.68H142.569L140.729 400H134.849L144.889 372.04H151.409L161.449 400H155.529L153.689 394.68ZM152.169 390.2L148.129 378.52L144.089 390.2H152.169ZM179.601 400L173.441 389.12H170.801V400H165.201V372.08H175.681C177.841 372.08 179.681 372.467 181.201 373.24C182.721 373.987 183.855 375.013 184.601 376.32C185.375 377.6 185.761 379.04 185.761 380.64C185.761 382.48 185.228 384.147 184.161 385.64C183.095 387.107 181.508 388.12 179.401 388.68L186.081 400H179.601ZM170.801 384.92H175.481C177.001 384.92 178.135 384.56 178.881 383.84C179.628 383.093 180.001 382.067 180.001 380.76C180.001 379.48 179.628 378.493 178.881 377.8C178.135 377.08 177.001 376.72 175.481 376.72H170.801V384.92ZM214.706 400H209.106L196.426 380.84V400H190.826V372.04H196.426L209.106 391.24V372.04H214.706V400ZM122.845 437.48C122.205 436.307 121.325 435.413 120.205 434.8C119.085 434.187 117.778 433.88 116.285 433.88C114.631 433.88 113.165 434.253 111.885 435C110.605 435.747 109.605 436.813 108.885 438.2C108.165 439.587 107.805 441.187 107.805 443C107.805 444.867 108.165 446.493 108.885 447.88C109.631 449.267 110.658 450.333 111.965 451.08C113.271 451.827 114.791 452.2 116.525 452.2C118.658 452.2 120.405 451.64 121.765 450.52C123.125 449.373 124.018 447.787 124.445 445.76H114.845V441.48H129.965V446.36C129.591 448.307 128.791 450.107 127.565 451.76C126.338 453.413 124.751 454.747 122.805 455.76C120.885 456.747 118.725 457.24 116.325 457.24C113.631 457.24 111.191 456.64 109.005 455.44C106.845 454.213 105.138 452.52 103.885 450.36C102.658 448.2 102.045 445.747 102.045 443C102.045 440.253 102.658 437.8 103.885 435.64C105.138 433.453 106.845 431.76 109.005 430.56C111.191 429.333 113.618 428.72 116.285 428.72C119.431 428.72 122.165 429.493 124.485 431.04C126.805 432.56 128.405 434.707 129.285 437.48H122.845ZM148.508 457L142.348 446.12H139.708V457H134.108V429.08H144.588C146.748 429.08 148.588 429.467 150.108 430.24C151.628 430.987 152.761 432.013 153.508 433.32C154.281 434.6 154.668 436.04 154.668 437.64C154.668 439.48 154.134 441.147 153.068 442.64C152.001 444.107 150.414 445.12 148.308 445.68L154.988 457H148.508ZM139.708 441.92H144.388C145.908 441.92 147.041 441.56 147.788 440.84C148.534 440.093 148.908 439.067 148.908 437.76C148.908 436.48 148.534 435.493 147.788 434.8C147.041 434.08 145.908 433.72 144.388 433.72H139.708V441.92ZM172.693 457.28C170.079 457.28 167.679 456.667 165.493 455.44C163.306 454.213 161.573 452.52 160.293 450.36C159.013 448.173 158.373 445.707 158.373 442.96C158.373 440.24 159.013 437.8 160.293 435.64C161.573 433.453 163.306 431.747 165.493 430.52C167.679 429.293 170.079 428.68 172.693 428.68C175.333 428.68 177.733 429.293 179.893 430.52C182.079 431.747 183.799 433.453 185.053 435.64C186.333 437.8 186.973 440.24 186.973 442.96C186.973 445.707 186.333 448.173 185.053 450.36C183.799 452.52 182.079 454.213 179.893 455.44C177.706 456.667 175.306 457.28 172.693 457.28ZM172.693 452.28C174.373 452.28 175.853 451.907 177.133 451.16C178.413 450.387 179.413 449.293 180.133 447.88C180.853 446.467 181.213 444.827 181.213 442.96C181.213 441.093 180.853 439.467 180.133 438.08C179.413 436.667 178.413 435.587 177.133 434.84C175.853 434.093 174.373 433.72 172.693 433.72C171.013 433.72 169.519 434.093 168.213 434.84C166.933 435.587 165.933 436.667 165.213 438.08C164.493 439.467 164.133 441.093 164.133 442.96C164.133 444.827 164.493 446.467 165.213 447.88C165.933 449.293 166.933 450.387 168.213 451.16C169.519 451.907 171.013 452.28 172.693 452.28ZM228.459 429.08L220.659 457H214.059L208.819 437.12L203.339 457L196.779 457.04L189.259 429.08H195.259L200.179 450.76L205.859 429.08H212.099L217.459 450.64L222.419 429.08H228.459ZM110.031 513L103.871 502.12H101.231V513H95.6311V485.08H106.111C108.271 485.08 110.111 485.467 111.631 486.24C113.151 486.987 114.284 488.013 115.031 489.32C115.804 490.6 116.191 492.04 116.191 493.64C116.191 495.48 115.658 497.147 114.591 498.64C113.524 500.107 111.938 501.12 109.831 501.68L116.511 513H110.031ZM101.231 497.92H105.911C107.431 497.92 108.564 497.56 109.311 496.84C110.058 496.093 110.431 495.067 110.431 493.76C110.431 492.48 110.058 491.493 109.311 490.8C108.564 490.08 107.431 489.72 105.911 489.72H101.231V497.92ZM126.856 489.6V496.6H136.256V501.04H126.856V508.44H137.456V513H121.256V485.04H137.456V489.6H126.856ZM162.905 493.72C162.905 495.213 162.545 496.613 161.825 497.92C161.132 499.227 160.025 500.28 158.505 501.08C157.012 501.88 155.118 502.28 152.825 502.28H148.145V513H142.545V485.08H152.825C154.985 485.08 156.825 485.453 158.345 486.2C159.865 486.947 160.998 487.973 161.745 489.28C162.518 490.587 162.905 492.067 162.905 493.72ZM152.585 497.76C154.132 497.76 155.278 497.413 156.025 496.72C156.772 496 157.145 495 157.145 493.72C157.145 491 155.625 489.64 152.585 489.64H148.145V497.76H152.585ZM172.481 489.6V496.6H181.881V501.04H172.481V508.44H183.081V513H166.881V485.04H183.081V489.6H172.481ZM205.29 507.68H194.17L192.33 513H186.45L196.49 485.04H203.01L213.05 513H207.13L205.29 507.68ZM203.77 503.2L199.73 491.52L195.69 503.2H203.77ZM235.803 485.08V489.6H228.363V513H222.763V489.6H215.323V485.08H235.803Z" fill="white"/>
</g>
</g>
<defs>
<filter id="filter0_d_220_6" x="0" y="0" width="330" height="576" filterUnits="userSpaceOnUse" color-interpolation-filters="sRGB">
<feFlood flood-opacity="0" result="BackgroundImageFix"/>
<feColorMatrix in="SourceAlpha" type="matrix" values="0 0 0 0 0 0 0 0 0 0 0 0 0 0 0 0 0 0 127 0" result="hardAlpha"/>
<feOffset dy="4"/>
<feGaussianBlur stdDeviation="2"/>
<feComposite in2="hardAlpha" operator="out"/>
<feColorMatrix type="matrix" values="0 0 0 0 0 0 0 0 0 0 0 0 0 0 0 0 0 0 0.25 0"/>
<feBlend mode="normal" in2="BackgroundImageFix" result="effect1_dropShadow_220_6"/>
<feBlend mode="normal" in="SourceGraphic" in2="effect1_dropShadow_220_6" result="shape"/>
</filter>
<clipPath id="clip0_220_6">
<rect x="4" width="322" height="568" rx="36" fill="white"/>
</clipPath>
<clipPath id="clip1_220_6">
<rect width="282" height="282" fill="white" transform="translate(30 53)"/>
</clipPath>
</defs>
</svg>
