<svg width="137" height="41" viewBox="0 0 137 41" fill="none" xmlns="http://www.w3.org/2000/svg">
<g clip-path="url(#clip0_120_820)">
<mask id="mask0_120_820" style="mask-type:luminance" maskUnits="userSpaceOnUse" x="0" y="0" width="136" height="41">
<path d="M135.968 0.179688H0.968262V40.1797H135.968V0.179688Z" fill="white"/>
</mask>
<g mask="url(#mask0_120_820)">
<path fill-rule="evenodd" clip-rule="evenodd" d="M130.968 40.1797H5.99071C3.22263 40.1797 0.968262 37.9253 0.968262 35.1797V5.17969C0.968262 2.42408 3.22263 0.179688 5.99071 0.179688H130.968C133.734 0.179688 135.991 2.42408 135.991 5.17969V35.1797C135.991 37.9253 133.734 40.1797 130.968 40.1797Z" fill="black"/>
<path fill-rule="evenodd" clip-rule="evenodd" d="M130.968 0.980187C133.29 0.980187 135.19 2.86797 135.19 5.17969V35.1797C135.19 37.4914 133.302 39.3792 130.968 39.3792H5.99071C3.66901 39.3792 1.76876 37.4914 1.76876 35.1797V5.17969C1.76876 2.86797 3.65654 0.980187 5.99071 0.980187H130.968ZM130.968 0.179688H5.99071C3.22263 0.179688 0.968262 2.43405 0.968262 5.17969V35.1797C0.968262 37.9353 3.22263 40.1797 5.99071 40.1797H130.968C133.734 40.1797 135.991 37.9353 135.991 35.1797V5.17969C135.991 2.43405 133.734 0.179688 130.968 0.179688Z" fill="#A6A6A6"/>
<path d="M69.1043 21.9316C66.7523 21.9316 64.8353 23.7196 64.8353 26.1846C64.8353 28.6336 66.7523 30.4376 69.1043 30.4376C71.4563 30.4376 73.3733 28.6336 73.3733 26.1846C73.3733 23.7196 71.4563 21.9316 69.1043 21.9316ZM69.1043 28.7626C67.8153 28.7626 66.7033 27.6996 66.7033 26.1846C66.7033 24.6536 67.8153 23.6066 69.1043 23.6066C70.3933 23.6066 71.5043 24.6536 71.5043 26.1846C71.5043 27.6986 70.3933 28.7626 69.1043 28.7626ZM59.7903 21.9316C57.4383 21.9316 55.5213 23.7196 55.5213 26.1846C55.5213 28.6336 57.4383 30.4376 59.7903 30.4376C62.1423 30.4376 64.0593 28.6336 64.0593 26.1846C64.0603 23.7196 62.1423 21.9316 59.7903 21.9316ZM59.7903 28.7626C58.5013 28.7626 57.3903 27.6996 57.3903 26.1846C57.3903 24.6536 58.5023 23.6066 59.7903 23.6066C61.0793 23.6066 62.1903 24.6536 62.1903 26.1846C62.1913 27.6986 61.0793 28.7626 59.7903 28.7626ZM48.7123 23.2366V25.0406H53.0303C52.9013 26.0556 52.5633 26.7966 52.0473 27.3126C51.4193 27.9406 50.4363 28.6336 48.7123 28.6336C46.0543 28.6336 43.9763 26.4906 43.9763 23.8326C43.9763 21.1746 46.0543 19.0316 48.7123 19.0316C50.1463 19.0316 51.1933 19.5956 51.9663 20.3206L53.2393 19.0476C52.1603 18.0166 50.7263 17.2266 48.7123 17.2266C45.0713 17.2266 42.0103 20.1906 42.0103 23.8316C42.0103 27.4726 45.0713 30.4366 48.7123 30.4366C50.6773 30.4366 52.1603 29.7926 53.3203 28.5836C54.5123 27.3916 54.8833 25.7156 54.8833 24.3626C54.8833 23.9436 54.8513 23.5566 54.7863 23.2346H48.7123V23.2366ZM94.0203 24.6376C93.6663 23.6866 92.5863 21.9306 90.3793 21.9306C88.1883 21.9306 86.3683 23.6546 86.3683 26.1836C86.3683 28.5676 88.1723 30.4366 90.5893 30.4366C92.5383 30.4366 93.6663 29.2446 94.1333 28.5516L92.6833 27.5846C92.2002 28.2936 91.5393 28.7606 90.5893 28.7606C89.6383 28.7606 88.9623 28.3256 88.5273 27.4716L94.2143 25.1196L94.0203 24.6376ZM88.2203 26.0556C88.1723 24.4126 89.4933 23.5746 90.4433 23.5746C91.1843 23.5746 91.8123 23.9446 92.0223 24.4766L88.2203 26.0556ZM83.5963 30.1796H85.4653V17.6786H83.5963V30.1796ZM80.5353 22.8816H80.4713C80.0523 22.3826 79.2473 21.9306 78.2323 21.9306C76.1053 21.9306 74.1563 23.7996 74.1563 26.1996C74.1563 28.5836 76.1053 30.4366 78.2323 30.4366C79.2473 30.4366 80.0523 29.9856 80.4713 29.4696H80.5353V30.0816C80.5353 31.7086 79.6653 32.5786 78.2633 32.5786C77.1193 32.5786 76.4103 31.7566 76.1203 31.0646L74.4933 31.7416C74.9603 32.8696 76.2013 34.2546 78.2633 34.2546C80.4543 34.2546 82.3073 32.9656 82.3073 29.8246V22.1886H80.5353V22.8816ZM78.3933 28.7626C77.1043 28.7626 76.0253 27.6836 76.0253 26.2006C76.0253 24.7026 77.1043 23.6066 78.3933 23.6066C79.6663 23.6066 80.6643 24.7016 80.6643 26.2006C80.6643 27.6826 79.6663 28.7626 78.3933 28.7626ZM102.774 17.6786H98.3033V30.1796H100.168V25.4436H102.773C104.841 25.4436 106.874 23.9466 106.874 21.5616C106.874 19.1766 104.842 17.6786 102.774 17.6786ZM102.822 23.7036H100.168V19.4186H102.822C104.217 19.4186 105.009 20.5736 105.009 21.5616C105.009 22.5296 104.217 23.7036 102.822 23.7036ZM114.354 21.9086C113.003 21.9086 111.604 22.5036 111.025 23.8226L112.682 24.5146C113.036 23.8226 113.695 23.5976 114.387 23.5976C115.352 23.5976 116.333 24.1766 116.349 25.2056V25.3346C116.011 25.1416 115.287 24.8516 114.403 24.8516C112.618 24.8516 110.8 25.8326 110.8 27.6666C110.8 29.3396 112.264 30.4166 113.904 30.4166C115.159 30.4166 115.85 29.8536 116.284 29.1946H116.348V30.1596H118.149V25.3666C118.149 23.1466 116.493 21.9086 114.354 21.9086ZM114.128 28.7596C113.517 28.7596 112.664 28.4536 112.664 27.6986C112.664 26.7336 113.726 26.3636 114.642 26.3636C115.462 26.3636 115.848 26.5406 116.347 26.7816C116.203 27.9396 115.206 28.7596 114.128 28.7596ZM124.711 22.1816L122.572 27.6016H122.508L120.289 22.1816H118.279L121.608 29.7566L119.71 33.9706H121.656L126.787 22.1816H124.711ZM107.904 30.1796H109.77V17.6786H107.904V30.1796Z" fill="white"/>
<path fill-rule="evenodd" clip-rule="evenodd" d="M74.5774 12.403C73.9874 13.01 73.2544 13.312 72.3774 13.312C71.5004 13.312 70.7674 13.009 70.1784 12.403C69.5884 11.797 69.2944 11.055 69.2944 10.178C69.2944 9.30097 69.5884 8.55897 70.1784 7.95297C70.7674 7.34597 71.5004 7.04297 72.3774 7.04297C73.2494 7.04297 73.9814 7.34797 74.5734 7.95697C75.1654 8.56597 75.4614 9.30597 75.4614 10.178C75.4614 11.056 75.1664 11.798 74.5774 12.403ZM70.7474 11.901C71.1914 12.351 71.7344 12.575 72.3774 12.575C73.0204 12.575 73.5634 12.35 74.0074 11.901C74.4514 11.451 74.6744 10.877 74.6744 10.179C74.6744 9.48097 74.4514 8.90597 74.0074 8.45697C73.5644 8.00697 73.0204 7.78297 72.3774 7.78297C71.7344 7.78297 71.1914 8.00797 70.7474 8.45697C70.3044 8.90697 70.0814 9.48097 70.0814 10.179C70.0814 10.877 70.3044 11.451 70.7474 11.901Z" fill="white"/>
<path d="M48.3863 10.4229C48.3863 11.2609 48.1383 11.9279 47.6413 12.4259C47.0773 13.0179 46.3413 13.3139 45.4373 13.3139C44.5713 13.3139 43.8343 13.0139 43.2293 12.4139C42.6233 11.8129 42.3203 11.0689 42.3203 10.1809C42.3203 9.29188 42.6233 8.54788 43.2293 7.94788C43.8343 7.34688 44.5713 7.04688 45.4373 7.04688C45.8673 7.04688 46.2783 7.13087 46.6683 7.29787C47.0593 7.46587 47.3723 7.68887 47.6063 7.96788L47.0793 8.49587C46.6823 8.02087 46.1353 7.78387 45.4363 7.78387C44.8043 7.78387 44.2583 8.00588 43.7973 8.44988C43.3373 8.89388 43.1073 9.46987 43.1073 10.1799C43.1073 10.8899 43.3373 11.4659 43.7983 11.9109C44.2593 12.3549 44.8053 12.5769 45.4373 12.5769C46.1073 12.5769 46.6663 12.3539 47.1133 11.9069C47.4033 11.6159 47.5713 11.2109 47.6163 10.6919H45.4373V9.96987H48.3443C48.3733 10.1269 48.3863 10.2779 48.3863 10.4229Z" fill="white"/>
<path d="M52.9962 7.91669H50.2642V9.81869H52.7282V10.5397H50.2642V12.4417H52.9962V13.1797H49.4932V7.17969H52.9962V7.91669Z" fill="white"/>
<path d="M55.4753 13.1797H56.2463V7.91669H57.9223V7.17969H53.7993V7.91669H55.4753V13.1797Z" fill="white"/>
<path d="M60.9062 13.1797V7.17969H61.6772V13.1797H60.9062Z" fill="white"/>
<path d="M64.3244 13.1797H65.0954V7.91669H66.7714V7.17969H62.6484V7.91669H64.3244V13.1797Z" fill="white"/>
<path d="M76.5435 7.17969V13.1797H77.3125V9.44169L77.2795 8.28569H77.3125L80.3635 13.1797H81.1685V7.17969H80.3975V10.6917L80.4305 11.8477H80.3975L77.4815 7.17969H76.5435Z" fill="white"/>
<path fill-rule="evenodd" clip-rule="evenodd" d="M74.5774 12.403C73.9874 13.01 73.2544 13.312 72.3774 13.312C71.5004 13.312 70.7674 13.009 70.1784 12.403C69.5884 11.797 69.2944 11.055 69.2944 10.178C69.2944 9.30097 69.5884 8.55897 70.1784 7.95297C70.7674 7.34597 71.5004 7.04297 72.3774 7.04297C73.2494 7.04297 73.9814 7.34797 74.5734 7.95697C75.1654 8.56597 75.4614 9.30597 75.4614 10.178C75.4614 11.056 75.1664 11.798 74.5774 12.403ZM70.7474 11.901C71.1914 12.351 71.7344 12.575 72.3774 12.575C73.0204 12.575 73.5634 12.35 74.0074 11.901C74.4514 11.451 74.6744 10.877 74.6744 10.179C74.6744 9.48097 74.4514 8.90597 74.0074 8.45697C73.5644 8.00697 73.0204 7.78297 72.3774 7.78297C71.7344 7.78297 71.1914 8.00797 70.7474 8.45697C70.3044 8.90697 70.0814 9.48097 70.0814 10.179C70.0814 10.877 70.3044 11.451 70.7474 11.901Z" stroke="white" stroke-width="0.2" stroke-miterlimit="10"/>
<path d="M48.3863 10.4229C48.3863 11.2609 48.1383 11.9279 47.6413 12.4259C47.0773 13.0179 46.3413 13.3139 45.4373 13.3139C44.5713 13.3139 43.8343 13.0139 43.2293 12.4139C42.6233 11.8129 42.3203 11.0689 42.3203 10.1809C42.3203 9.29188 42.6233 8.54788 43.2293 7.94788C43.8343 7.34688 44.5713 7.04688 45.4373 7.04688C45.8673 7.04688 46.2783 7.13087 46.6683 7.29787C47.0593 7.46587 47.3723 7.68887 47.6063 7.96788L47.0793 8.49587C46.6823 8.02087 46.1353 7.78387 45.4363 7.78387C44.8043 7.78387 44.2583 8.00588 43.7973 8.44988C43.3373 8.89388 43.1073 9.46987 43.1073 10.1799C43.1073 10.8899 43.3373 11.4659 43.7983 11.9109C44.2593 12.3549 44.8053 12.5769 45.4373 12.5769C46.1073 12.5769 46.6663 12.3539 47.1133 11.9069C47.4033 11.6159 47.5713 11.2109 47.6163 10.6919H45.4373V9.96987H48.3443C48.3733 10.1269 48.3863 10.2779 48.3863 10.4229Z" stroke="white" stroke-width="0.2" stroke-miterlimit="10"/>
<path d="M52.9962 7.91669H50.2642V9.81869H52.7282V10.5397H50.2642V12.4417H52.9962V13.1797H49.4932V7.17969H52.9962V7.91669Z" stroke="white" stroke-width="0.2" stroke-miterlimit="10"/>
<path d="M55.4753 13.1797H56.2463V7.91669H57.9223V7.17969H53.7993V7.91669H55.4753V13.1797Z" stroke="white" stroke-width="0.2" stroke-miterlimit="10"/>
<path d="M60.9062 13.1797V7.17969H61.6772V13.1797H60.9062Z" stroke="white" stroke-width="0.2" stroke-miterlimit="10"/>
<path d="M64.3244 13.1797H65.0954V7.91669H66.7714V7.17969H62.6484V7.91669H64.3244V13.1797Z" stroke="white" stroke-width="0.2" stroke-miterlimit="10"/>
<path d="M76.5435 7.17969V13.1797H77.3125V9.44169L77.2795 8.28569H77.3125L80.3635 13.1797H81.1685V7.17969H80.3975V10.6917L80.4305 11.8477H80.3975L77.4815 7.17969H76.5435Z" stroke="white" stroke-width="0.2" stroke-miterlimit="10"/>
<path d="M11.4034 7.71753C11.1124 8.02553 10.9404 8.50353 10.9404 9.12253V31.2386C10.9404 31.8586 11.1124 32.3356 11.4034 32.6436L11.4774 32.7155L23.8664 20.3266V20.1806V20.0346L11.4774 7.64453L11.4034 7.71753Z" fill="url(#paint0_linear_120_820)"/>
<path d="M27.9962 24.4592L23.8672 20.3283V20.1823V20.0363L27.9972 15.9062L28.0902 15.9593L32.9832 18.7393C34.3812 19.5333 34.3812 20.8323 32.9832 21.6273L28.0902 24.4072L27.9962 24.4592Z" fill="url(#paint1_linear_120_820)"/>
<path d="M28.0903 24.4056L23.8673 20.1816L11.4033 32.6446C11.8643 33.1326 12.6243 33.1926 13.4813 32.7056L28.0903 24.4056Z" fill="url(#paint2_linear_120_820)"/>
<path d="M28.0903 15.9565L13.4823 7.65649C12.6253 7.16949 11.8653 7.23049 11.4043 7.71749L23.8673 20.1805L28.0903 15.9565Z" fill="url(#paint3_linear_120_820)"/>
<path opacity="0.2" d="M27.9973 24.3125L13.4823 32.5595C12.6703 33.0205 11.9443 32.9905 11.4783 32.5705L11.4033 32.6455L11.4773 32.7175C11.9433 33.1375 12.6693 33.1685 13.4813 32.7065L28.0893 24.4065L27.9973 24.3125Z" fill="black"/>
<path opacity="0.12" d="M11.4034 32.4968C11.1124 32.1888 10.9404 31.7108 10.9404 31.0918V31.2378C10.9404 31.8568 11.1124 32.3348 11.4034 32.6428L11.4784 32.5678L11.4034 32.4968Z" fill="black"/>
<path opacity="0.12" d="M32.9831 21.4786L27.9971 24.3116L28.0901 24.4046L32.9831 21.6246C33.6821 21.2276 34.0311 20.7046 34.0311 20.1816C33.9721 20.6546 33.6161 21.1186 32.9831 21.4786Z" fill="black"/>
<path opacity="0.25" d="M13.4814 7.80298L32.9824 18.883C33.6164 19.243 33.9714 19.707 34.0304 20.181C34.0304 19.658 33.6814 19.134 32.9824 18.737L13.4814 7.65698C12.0834 6.86298 10.9404 7.52198 10.9404 9.12298V9.26998C10.9404 7.66898 12.0844 7.00898 13.4814 7.80298Z" fill="white"/>
</g>
</g>
<defs>
<linearGradient id="paint0_linear_120_820" x1="22.768" y1="8.88933" x2="5.98564" y2="25.6718" gradientUnits="userSpaceOnUse">
<stop stop-color="#00A0FF"/>
<stop offset="0.0066" stop-color="#00A1FF"/>
<stop offset="0.2601" stop-color="#00BEFF"/>
<stop offset="0.5122" stop-color="#00D2FF"/>
<stop offset="0.7604" stop-color="#00DFFF"/>
<stop offset="1" stop-color="#00E3FF"/>
</linearGradient>
<linearGradient id="paint1_linear_120_820" x1="34.8025" y1="20.1817" x2="10.6056" y2="20.1817" gradientUnits="userSpaceOnUse">
<stop stop-color="#FFE000"/>
<stop offset="0.4087" stop-color="#FFBD00"/>
<stop offset="0.7754" stop-color="#FFA500"/>
<stop offset="1" stop-color="#FF9C00"/>
</linearGradient>
<linearGradient id="paint2_linear_120_820" x1="25.7952" y1="22.4768" x2="3.03694" y2="45.2351" gradientUnits="userSpaceOnUse">
<stop stop-color="#FF3A44"/>
<stop offset="1" stop-color="#C31162"/>
</linearGradient>
<linearGradient id="paint3_linear_120_820" x1="8.2655" y1="0.355789" x2="18.4281" y2="10.5183" gradientUnits="userSpaceOnUse">
<stop stop-color="#32A071"/>
<stop offset="0.0685" stop-color="#2DA771"/>
<stop offset="0.4762" stop-color="#15CF74"/>
<stop offset="0.8009" stop-color="#06E775"/>
<stop offset="1" stop-color="#00F076"/>
</linearGradient>
<clipPath id="clip0_120_820">
<rect width="136" height="40" fill="white" transform="translate(0.5 0.179688)"/>
</clipPath>
</defs>
</svg>
