<svg width="126" height="131" viewBox="0 0 126 131" fill="none" xmlns="http://www.w3.org/2000/svg">
<g clip-path="url(#clip0_137_136)">
<path opacity="0.4" d="M50.598 0V64.73C50.598 82.367 46.051 96.837 36.957 108.139C27.862 119.612 15.543 127.233 0 131V102.231C4.795 100.69 8.681 98.807 11.658 96.581C14.634 94.354 16.948 91.7 18.602 88.618C20.256 85.535 21.331 81.939 21.827 77.829C22.323 73.891 22.571 69.524 22.571 64.729V57.794H0V0H50.598ZM126 0V64.73C126 82.367 121.453 96.837 112.358 108.139C103.264 119.612 90.945 127.233 75.402 131V102.231C80.197 100.69 84.082 98.807 87.059 96.581C90.035 94.354 92.35 91.7 94.004 88.618C95.492 85.535 96.567 81.939 97.228 77.829C97.724 73.891 97.972 69.524 97.972 64.729V57.794H75.402V0H126Z" fill="#343433"/>
</g>
<defs>
<clipPath id="clip0_137_136">
<rect width="126" height="131" fill="white"/>
</clipPath>
</defs>
</svg>
