<svg width="126" height="131" viewBox="0 0 126 131" fill="none" xmlns="http://www.w3.org/2000/svg">
<path opacity="0.4" d="M75.402 131V66.27C75.402 48.633 79.949 34.163 89.043 22.86C98.138 11.389 110.457 3.768 126 0V28.769C121.205 30.309 117.319 32.193 114.342 34.419C111.366 36.646 109.051 39.3 107.398 42.382C105.744 45.465 104.669 49.061 104.173 53.171C103.677 57.109 103.429 61.476 103.429 66.271V73.206H126V131H75.402ZM0 131V66.27C0 48.633 4.547 34.163 13.642 22.86C22.736 11.389 35.055 3.768 50.598 0V28.769C45.803 30.309 41.918 32.194 38.941 34.419C35.965 36.646 33.65 39.3 31.996 42.382C30.508 45.465 29.433 49.061 28.772 53.171C28.276 57.109 28.028 61.476 28.028 66.271V73.206H50.598V131H0Z" fill="#343433"/>
</svg>
