<!DOCTYPE svg PUBLIC "-//W3C//DTD SVG 1.1//EN" "http://www.w3.org/Graphics/SVG/1.1/DTD/svg11.dtd">
<!-- Uploaded to: SVG Repo, www.svgrepo.com, Transformed by: SVG Repo Mixer Tools -->
<svg height="800px" width="800px" version="1.1" id="图层_1" xmlns="http://www.w3.org/2000/svg" xmlns:xlink="http://www.w3.org/1999/xlink" viewBox="0 0 40 40" enable-background="new 0 0 40 40" xml:space="preserve" fill="#000000">
<g id="SVGRepo_bgCarrier" stroke-width="0"/>
<g id="SVGRepo_tracerCarrier" stroke-linecap="round" stroke-linejoin="round"/>
<g id="SVGRepo_iconCarrier"> <g> <g> <g> <path fill="#ffffff" d="M24.8,25.5H14.2c-1.5,0-2.7-1.2-2.7-2.7v-5.5c0-1.5,1.2-2.7,2.7-2.7h10.5c1.5,0,2.7,1.2,2.7,2.7v5.5 C27.5,24.3,26.3,25.5,24.8,25.5z M14.2,15.5c-1,0-1.7,0.8-1.7,1.7v5.5c0,1,0.8,1.7,1.7,1.7h10.5c1,0,1.7-0.8,1.7-1.7v-5.5 c0-1-0.8-1.7-1.7-1.7H14.2z"/> </g> <g> <path fill="#ffffff" d="M27,18.6h1c0.3,0,0.5,0.2,0.5,0.5v2c0,0.3-0.2,0.5-0.5,0.5h-1V18.6z"/> </g> <g> <path fill="#ffffff" d="M15,22.5c-0.3,0-0.5-0.2-0.5-0.5v-4c0-0.3,0.2-0.5,0.5-0.5s0.5,0.2,0.5,0.5v4 C15.5,22.3,15.3,22.5,15,22.5z"/> </g> <g> <path fill="#ffffff" d="M18,22.5c-0.3,0-0.5-0.2-0.5-0.5v-4c0-0.3,0.2-0.5,0.5-0.5s0.5,0.2,0.5,0.5v4 C18.5,22.3,18.3,22.5,18,22.5z"/> </g> <g> <path fill="#ffffff" d="M21,22.5c-0.3,0-0.5-0.2-0.5-0.5v-4c0-0.3,0.2-0.5,0.5-0.5s0.5,0.2,0.5,0.5v4 C21.5,22.3,21.3,22.5,21,22.5z"/> </g> <g> <path fill="#ffffff" d="M24,22.5c-0.3,0-0.5-0.2-0.5-0.5v-4c0-0.3,0.2-0.5,0.5-0.5s0.5,0.2,0.5,0.5v4 C24.5,22.3,24.3,22.5,24,22.5z"/> </g> </g> </g> </g>
</svg>