<svg width="400" height="168" viewBox="0 0 400 168" fill="none" xmlns="http://www.w3.org/2000/svg">
<rect y="16" width="400" height="152" rx="16" fill="#492C82"/>
<g clip-path="url(#clip0_120_777)">
<path d="M351.759 79.1698H292.444V12.2907L285.975 3.03516H296.623H344.842C348.674 3.03516 351.759 6.12035 351.759 9.95195V79.1698Z" fill="#F9F3E5"/>
<path d="M372.309 70.5116C372.309 70.5116 376.489 67.1279 375.046 61.3058C373.603 55.4837 368.577 34.6836 368.577 34.6836L367.035 36.8233C367.035 36.8233 367.234 38.8138 368.378 40.008L373.006 58.967C373.205 59.7135 373.155 60.4599 372.807 61.1566C372.459 61.8532 371.812 62.5498 370.618 62.4005L372.309 70.5116Z" fill="#FD6F5C"/>
<path d="M369.622 78.8223L350.962 1.99099L352.057 1.74219C352.057 1.74219 356.734 8.80828 364.945 37.9683C371.762 61.9533 373.155 71.1093 373.404 73.5974C373.504 74.493 373.354 75.4385 372.956 76.2347C372.558 77.2299 371.563 78.3246 369.622 78.8223Z" fill="#A3E3E3"/>
<path d="M369.623 78.8215L350.962 1.99023L349.867 2.23904C349.867 2.23904 348.972 10.6984 354.993 40.3561C359.969 64.7888 362.905 73.5966 363.801 75.8856C364.099 76.7315 364.646 77.478 365.393 78.0254C366.289 78.722 367.682 79.2693 369.623 78.8215Z" fill="#27ABA7"/>
<path d="M363.353 74.5926C363.452 74.941 363.552 75.2396 363.651 75.4883L373.404 73.0998C373.355 72.851 373.305 72.5524 373.255 72.1543L363.353 74.5926Z" fill="#075955"/>
<path d="M357.48 51.9997C357.928 54.0897 358.376 56.0303 358.824 57.772L369.622 55.1347C369.174 53.3931 368.677 51.4523 368.129 49.4121L357.48 51.9997Z" fill="#075955"/>
<path d="M351.012 17.4145C351.061 17.6633 351.061 17.9122 351.111 18.2108L358.277 16.4691C358.177 16.2202 358.078 15.9714 358.028 15.7227L351.012 17.4145Z" fill="#075955"/>
<path d="M368.428 73.3477L363.353 74.5916C363.452 74.94 363.552 75.2385 363.651 75.4873L368.627 74.293L368.428 73.3477Z" fill="#252149"/>
<path d="M364.298 56.4285L362.904 50.6562L357.48 51.95C357.928 54.04 358.376 55.9806 358.824 57.7223L364.298 56.4285Z" fill="#252149"/>
<path d="M354.794 17.3167L354.595 16.5703L351.012 17.466C351.061 17.7148 351.061 17.9636 351.111 18.2622L354.794 17.3167Z" fill="#252149"/>
<path d="M352.057 1.74164C352.057 1.74164 351.261 0.298567 350.763 0L350.216 0.149284C350.216 0.149284 349.868 1.09474 349.868 2.28901L352.057 1.74164Z" fill="#FD6F5C"/>
<path d="M292.444 16.4707H280.003V9.25531C280.003 5.77202 282.79 3.03516 286.224 3.03516C289.657 3.03516 292.444 5.82179 292.444 9.25531V16.4707Z" fill="#27ABA7"/>
<path d="M301.998 12.293H312.199V14.5323H308.467V26.1764H305.68V14.5323H301.948V12.293H301.998Z" fill="#075955"/>
<path d="M328.421 26.1751H324.988L323.495 24.6822C322.201 25.8267 320.658 26.4239 318.767 26.4239C315.633 26.4239 313.642 24.732 313.642 22.1444C313.642 20.353 314.637 18.8105 316.727 17.9148C315.981 17.019 315.732 16.2726 315.732 15.3272C315.732 13.4362 317.275 11.9434 319.813 11.9434C322.45 11.9434 323.793 13.5358 323.694 15.4764H320.957C321.007 14.5807 320.459 14.1329 319.713 14.1329C318.967 14.1329 318.419 14.6305 318.419 15.3272C318.419 16.0238 318.817 16.6209 319.713 17.5166L323.246 20.9999C323.296 20.9501 323.296 20.9004 323.346 20.8507L324.49 18.9597H327.277L325.883 21.398C325.585 21.9454 325.336 22.3932 325.037 22.8909L328.421 26.1751ZM321.703 22.9406L318.27 19.5568C316.976 20.154 316.329 20.9501 316.329 21.9952C316.329 23.1895 317.275 24.0852 318.817 24.0852C319.962 24.1348 320.907 23.7368 321.703 22.9406Z" fill="#075955"/>
<path d="M342.701 16.6205H339.467C338.82 15.277 337.626 14.6301 336.133 14.6301C333.695 14.6301 331.953 16.4215 331.953 19.2579C331.953 22.0943 333.695 23.8857 336.133 23.8857C337.626 23.8857 338.82 23.2388 339.467 21.8952H342.701C341.756 24.7814 339.268 26.4235 336.183 26.4235C332.152 26.4235 329.117 23.4875 329.117 19.3077C329.117 15.1277 332.152 12.1918 336.183 12.1918C339.268 12.0923 341.756 13.7344 342.701 16.6205Z" fill="#075955"/>
<path d="M340.464 36.8728H306.128C305.432 36.8728 304.884 36.3254 304.884 35.6288C304.884 34.9321 305.432 34.3848 306.128 34.3848H340.464C341.16 34.3848 341.708 34.9321 341.708 35.6288C341.708 36.2757 341.16 36.8728 340.464 36.8728Z" fill="#27ABA7"/>
<path d="M340.464 45.3319H306.128C305.432 45.3319 304.884 44.7845 304.884 44.0878C304.884 43.3911 305.432 42.8438 306.128 42.8438H340.464C341.16 42.8438 341.708 43.3911 341.708 44.0878C341.708 44.7347 341.16 45.3319 340.464 45.3319Z" fill="#27ABA7"/>
<path d="M340.464 53.7927H306.128C305.432 53.7927 304.884 53.2453 304.884 52.5486C304.884 51.852 305.432 51.3047 306.128 51.3047H340.464C341.16 51.3047 341.708 51.852 341.708 52.5486C341.708 53.1956 341.16 53.7927 340.464 53.7927Z" fill="#27ABA7"/>
<path d="M340.464 62.2498H306.128C305.432 62.2498 304.884 61.7025 304.884 61.0058C304.884 60.3092 305.432 59.7617 306.128 59.7617H340.464C341.16 59.7617 341.708 60.3092 341.708 61.0058C341.708 61.6527 341.16 62.2498 340.464 62.2498Z" fill="#27ABA7"/>
</g>
<defs>
<clipPath id="clip0_120_777">
<rect width="95.9936" height="79.17" fill="white" transform="translate(280.003)"/>
</clipPath>
</defs>
</svg>
